<?xml version="1.0" encoding="utf-8"?>
<!-- Generator: Adobe Illustrator 19.0.0, SVG Export Plug-In . SVG Version: 6.00 Build 0)  -->
<svg version="1.1" id="Ebene_1" xmlns="http://www.w3.org/2000/svg" xmlns:xlink="http://www.w3.org/1999/xlink" x="0px" y="0px"
	 viewBox="0 0 150.7 39.3" style="enable-background:new 0 0 150.7 39.3;" xml:space="preserve">
<style type="text/css">
	.st0{clip-path:url(#SVGID_2_);fill:#575756;}
	.st1{fill:#575756;}
	.st2{clip-path:url(#SVGID_4_);fill:#575756;}
	.st3{clip-path:url(#SVGID_6_);fill:#575756;}
	.st4{clip-path:url(#SVGID_8_);fill:#575756;}
	.st5{clip-path:url(#SVGID_10_);fill:#575756;}
	.st6{clip-path:url(#SVGID_12_);fill:#575756;}
	.st7{clip-path:url(#SVGID_14_);fill:#575756;}
	.st8{clip-path:url(#SVGID_16_);fill:#575756;}
	.st9{clip-path:url(#SVGID_18_);fill:#575756;}
	.st10{clip-path:url(#SVGID_20_);fill:#575756;}
	.st11{clip-path:url(#SVGID_22_);fill:#0B3753;}
</style>
<g>
	<defs>
		<rect id="SVGID_1_" width="150.7" height="39.3"/>
	</defs>
	<clipPath id="SVGID_2_">
		<use xlink:href="#SVGID_1_"  style="overflow:visible;"/>
	</clipPath>
	<path class="st0" d="M57.5,31.1h-1.9v-1h0c-0.6,0.7-1.4,1.2-2.5,1.2c-1.8,0-2.6-1.3-2.6-3v-4.8h2v4c0,0.9,0,2.2,1.3,2.2
		c1.4,0,1.7-1.5,1.7-2.5v-3.7h2V31.1z"/>
</g>
<rect x="59.6" y="20.2" class="st1" width="2" height="11"/>
<g>
	<defs>
		<rect id="SVGID_3_" width="150.7" height="39.3"/>
	</defs>
	<clipPath id="SVGID_4_">
		<use xlink:href="#SVGID_3_"  style="overflow:visible;"/>
	</clipPath>
	<path class="st2" d="M63.5,23.6h1.8v1.1h0c0.6-0.9,1.5-1.2,2.2-1.2c1.1,0,1.8,0.4,2.2,1.3c0.5-0.9,1.4-1.3,2.4-1.3
		c1.9,0,2.4,1.3,2.4,3v4.8h-2v-4.5c0-0.7,0-1.7-1.1-1.7c-1.3,0-1.5,1.5-1.5,2.5v3.7h-2v-4.5c0-0.7,0-1.7-1.1-1.7
		c-1.3,0-1.5,1.5-1.5,2.5v3.7h-2V23.6z"/>
</g>
<rect x="76.6" y="29.1" class="st1" width="2" height="2"/>
<g>
	<defs>
		<rect id="SVGID_5_" width="150.7" height="39.3"/>
	</defs>
	<clipPath id="SVGID_6_">
		<use xlink:href="#SVGID_5_"  style="overflow:visible;"/>
	</clipPath>
	<path class="st3" d="M83.8,29.8c1.3,0,1.7-1.4,1.7-2.4c0-1.1-0.5-2.4-1.8-2.4c-1.3,0-1.6,1.4-1.6,2.4
		C82.2,28.4,82.6,29.8,83.8,29.8 M85.6,30.3L85.6,30.3c-0.6,0.7-1.4,1-2.3,1c-2.3,0-3.2-1.9-3.2-4c0-2.1,0.8-3.9,3.2-3.9
		c1,0,1.7,0.3,2.3,1.1h0v-4.3h2v11h-1.9V30.3z"/>
</g>
<path class="st1" d="M89.6,23.6h2v7.5h-2V23.6z M89.6,20.4h2v1.9h-2V20.4z"/>
<g>
	<defs>
		<rect id="SVGID_7_" width="150.7" height="39.3"/>
	</defs>
	<clipPath id="SVGID_8_">
		<use xlink:href="#SVGID_7_"  style="overflow:visible;"/>
	</clipPath>
	<path class="st4" d="M98.6,27.3c0-1.3-0.5-2.3-1.6-2.3c-1.3,0-1.8,1.2-1.8,2.4c0,1,0.5,2.3,1.7,2.3C98.1,29.6,98.6,28.5,98.6,27.3
		 M100.5,23.6v6.8c0,2-0.8,4-4,4c-0.8,0-1.7-0.1-2.6-0.5l0.2-1.7c0.6,0.3,1.6,0.7,2.2,0.7c2.2,0,2.3-1.6,2.3-2.9h0
		c-0.4,0.6-1.2,1.2-2.3,1.2c-2.2,0-3.1-1.8-3.1-3.8c0-1.8,0.9-3.9,3.2-3.9c1,0,1.8,0.3,2.3,1.2h0v-1H100.5z"/>
</g>
<path class="st1" d="M102.6,23.6h2v7.5h-2V23.6z M102.6,20.4h2v1.9h-2V20.4z"/>
<g>
	<defs>
		<rect id="SVGID_9_" width="150.7" height="39.3"/>
	</defs>
	<clipPath id="SVGID_10_">
		<use xlink:href="#SVGID_9_"  style="overflow:visible;"/>
	</clipPath>
	<path class="st5" d="M107.3,25h-1.4v-1.4h1.4v-1.5l2-0.6v2.1h1.7V25h-1.7v3.5c0,0.6,0.2,1.2,0.9,1.2c0.4,0,0.7-0.1,0.9-0.2l0.1,1.5
		c-0.4,0.1-0.9,0.2-1.4,0.2c-1.5,0-2.4-0.9-2.4-2.4V25z"/>
	<path class="st5" d="M114.9,29.9c0.6,0,1.1-0.3,1.4-0.7c0.3-0.4,0.4-1,0.4-1.5h-0.8c-0.9,0-2.2,0.1-2.2,1.3
		C113.7,29.6,114.2,29.9,114.9,29.9 M112.6,24c0.8-0.4,1.8-0.6,2.6-0.6c2.3,0,3.2,0.9,3.2,3.2v1c0,0.8,0,1.3,0,1.9
		c0,0.6,0,1.1,0.1,1.7h-1.7c-0.1-0.4-0.1-0.9-0.1-1.1h0c-0.5,0.8-1.4,1.3-2.3,1.3c-1.3,0-2.6-0.8-2.6-2.2c0-1.1,0.5-1.8,1.3-2.1
		c0.7-0.4,1.7-0.4,2.5-0.4h1.1c0-1.2-0.5-1.6-1.7-1.6c-0.8,0-1.7,0.3-2.3,0.8L112.6,24z"/>
</g>
<rect x="120.5" y="20.2" class="st1" width="2" height="11"/>
<g>
	<defs>
		<rect id="SVGID_11_" width="150.7" height="39.3"/>
	</defs>
	<clipPath id="SVGID_12_">
		<use xlink:href="#SVGID_11_"  style="overflow:visible;"/>
	</clipPath>
	<path class="st6" d="M133.3,26.6c-0.1-0.9-0.5-1.8-1.6-1.8c-1.1,0-1.7,0.8-1.7,1.8H133.3z M134.6,30.7c-0.7,0.4-1.5,0.6-2.6,0.6
		c-2.5,0-3.9-1.4-3.9-3.9c0-2.2,1.2-4,3.5-4c2.8,0,3.6,1.9,3.6,4.5h-5.2c0.1,1.2,0.9,1.9,2.1,1.9c0.9,0,1.8-0.4,2.5-0.8V30.7z"/>
</g>
<rect x="136.7" y="29.1" class="st1" width="2" height="2"/>
<polygon class="st1" points="139.9,20.9 142.1,20.9 144.7,28.9 144.7,28.9 147.3,20.9 149.3,20.9 145.9,31.1 143.4,31.1 "/>
<rect x="148.6" y="29.1" class="st1" width="2" height="2"/>
<path class="st1" d="M50.6,10.2h1.1v6h-1.1V10.2z M51.8,8.9h-1.2V7.6h1.2V8.9z"/>
<g>
	<defs>
		<rect id="SVGID_13_" width="150.7" height="39.3"/>
	</defs>
	<clipPath id="SVGID_14_">
		<use xlink:href="#SVGID_13_"  style="overflow:visible;"/>
	</clipPath>
	<path class="st7" d="M53.8,10.2h1.1v0.9h0c0.3-0.7,1.1-1.1,2-1.1c1.5,0,2.2,1,2.2,2.6v3.5h-1.1v-3.1c0-1.4-0.3-2.1-1.3-2.1
		c-1.3,0-1.8,1-1.8,2.5v2.8h-1.1V10.2z"/>
</g>
<path class="st1" d="M61,10.2h1.1v6H61V10.2z M62.2,8.9H61V7.6h1.2V8.9z"/>
<g>
	<defs>
		<rect id="SVGID_15_" width="150.7" height="39.3"/>
	</defs>
	<clipPath id="SVGID_16_">
		<use xlink:href="#SVGID_15_"  style="overflow:visible;"/>
	</clipPath>
	<path class="st8" d="M67.3,11.1h-1.6v3.3c0,0.7,0.4,1.1,0.9,1.1c0.3,0,0.6-0.1,0.7-0.2v0.9c-0.2,0.1-0.6,0.2-0.9,0.2
		c-1.1,0-1.8-0.5-1.8-1.7v-3.5h-1.3v-0.9h1.3V8.8l1.1-0.4v1.7h1.6V11.1z"/>
</g>
<path class="st1" d="M68.8,10.2h1.1v6h-1.1V10.2z M70,8.9h-1.2V7.6H70V8.9z"/>
<g>
	<defs>
		<rect id="SVGID_17_" width="150.7" height="39.3"/>
	</defs>
	<clipPath id="SVGID_18_">
		<use xlink:href="#SVGID_17_"  style="overflow:visible;"/>
	</clipPath>
	<path class="st9" d="M75.5,13.3c-0.2,0-0.5,0-0.7,0c-0.6,0-2.1,0.1-2.1,1.1c0,0.6,0.6,1,1.1,1c1.1,0,1.7-0.7,1.7-1.6V13.3z
		 M72.2,10.6c0.5-0.3,1.2-0.6,2-0.6c1.7,0,2.4,0.8,2.4,2.5V15c0,0.7,0,1,0,1.2h-1v-0.8h0c-0.3,0.4-0.8,0.9-1.8,0.9
		c-1.3,0-2.2-0.6-2.2-1.9c0-1.5,1.6-2,2.8-2c0.4,0,0.7,0,1.2,0c0-1-0.4-1.6-1.5-1.6c-0.6,0-1.3,0.2-1.7,0.6L72.2,10.6z"/>
	<path class="st9" d="M81.6,11.1H80v3.3c0,0.7,0.4,1.1,0.9,1.1c0.3,0,0.6-0.1,0.7-0.2v0.9c-0.2,0.1-0.6,0.2-0.9,0.2
		c-1.1,0-1.8-0.5-1.8-1.7v-3.5h-1.3v-0.9h1.3V8.8L80,8.5v1.7h1.6V11.1z"/>
</g>
<path class="st1" d="M83.1,10.2h1.1v6h-1.1V10.2z M84.3,8.9h-1.2V7.6h1.2V8.9z"/>
<polygon class="st1" points="88.9,16.2 87.6,16.2 85.4,10.2 86.6,10.2 88.3,15.1 88.3,15.1 89.9,10.2 91,10.2 "/>
<g>
	<defs>
		<rect id="SVGID_19_" width="150.7" height="39.3"/>
	</defs>
	<clipPath id="SVGID_20_">
		<use xlink:href="#SVGID_19_"  style="overflow:visible;"/>
	</clipPath>
	<path class="st10" d="M96,12.6c0-0.9-0.5-1.7-1.5-1.7c-1.1,0-1.5,0.9-1.6,1.7H96z M96.7,15.9c-0.4,0.2-0.9,0.4-1.9,0.4
		c-2.1,0-3.1-1.3-3.1-3.2c0-1.8,1.1-3,2.8-3c2,0,2.6,1.5,2.6,3.4h-4.3c0,1.2,0.9,2,2,2c0.7,0,1.6-0.4,1.8-0.6V15.9z"/>
</g>
<rect x="98.6" y="14.9" class="st1" width="1.3" height="1.3"/>
<g>
	<defs>
		<rect id="SVGID_21_" width="150.7" height="39.3"/>
	</defs>
	<clipPath id="SVGID_22_">
		<use xlink:href="#SVGID_21_"  style="overflow:visible;"/>
	</clipPath>
	<path class="st11" d="M4.1,26.6c0.9-0.5,1.4-1.3,1.5-2.3l10.1-3.1c0,0,0,0,0,0c0.8,1.5,2.3,2.5,3.9,2.8l0,8.4
		c-0.2,0.1-0.4,0.1-0.6,0.3c-1.7,0.9-2.3,3-1.5,4.6c0.9,1.7,3,2.3,4.6,1.5c1.7-0.9,2.3-3,1.5-4.6c-0.4-0.9-1.2-1.4-2.1-1.7l0-8.4
		c0.5-0.1,1.1-0.3,1.6-0.5c1.4-0.7,2.3-1.9,2.7-3.3l6,2.1c0,0.4,0.1,0.8,0.3,1.2c0.7,1.4,2.4,1.9,3.7,1.2c1.4-0.7,1.9-2.4,1.2-3.7
		c-0.7-1.4-2.4-1.9-3.7-1.2c-0.3,0.2-0.6,0.4-0.8,0.7l-6.4-2.3c-0.1-0.7-0.3-1.4-0.6-2c-0.1-0.2-0.2-0.3-0.3-0.5l13.1-9.5
		c1,0.8,2.5,1,3.7,0.3c1.7-0.9,2.3-3,1.5-4.6c-0.9-1.7-3-2.3-4.6-1.5c-1.5,0.8-2.2,2.6-1.6,4.2l-13.3,9.6c-1-0.7-2.3-1.1-3.5-1
		l-1.7-6.9c1.6-0.9,2.2-2.9,1.3-4.6c-0.9-1.7-3-2.3-4.6-1.5c-1.7,0.9-2.3,3-1.5,4.6c0.6,1.1,1.7,1.8,2.9,1.8l1.7,6.9
		c-0.1,0-0.2,0.1-0.3,0.1c-2.1,1.1-3.1,3.3-2.9,5.5L5,22.4c-0.8-1-2.3-1.4-3.5-0.8c-1.4,0.7-1.9,2.4-1.2,3.7
		C1,26.7,2.7,27.3,4.1,26.6"/>
</g>
</svg>
