<?xml version="1.0" encoding="utf-8"?>
<!-- Generator: Adobe Illustrator 19.2.1, SVG Export Plug-In . SVG Version: 6.00 Build 0)  -->
<svg version="1.1" id="layer" xmlns="http://www.w3.org/2000/svg" xmlns:xlink="http://www.w3.org/1999/xlink" x="0px" y="0px"
	 viewBox="0 0 652 652" style="enable-background:new 0 0 652 652;" xml:space="preserve">
<style type="text/css">
	.st0{fill:#231815;}
</style>
<g>
	<path class="st0" d="M53.4,148.5c4.5,2.8,9.7,4.5,16.9,4.5c9.4,0,17.2-4.8,17.2-15.7c0-15-35.1-16.9-35.1-36.9
		c0-12.3,10.7-19.9,24.2-19.9c3.7,0,9.7,0.5,15,2.5l-1.2,6.9c-3.4-1.9-8.8-2.8-13.9-2.8c-7.9,0-16.5,3.3-16.5,13.1
		c0,15.3,35,15.4,35,37.8c0,15.4-13.3,21.6-25.1,21.6c-7.4,0-13.2-1.5-17.3-3.3L53.4,148.5z"/>
	<path class="st0" d="M132.4,102.4h-12.7V86.5l-6.9,2.4v13.5h-11v5.9h11v32.6c0,10.2,0.5,18.6,12.7,18.6c3.4,0,6.8-0.9,8.4-1.5
		l-0.5-5.7c-2,0.8-3.7,1.3-6.3,1.3c-5.6,0-7.5-4.2-7.5-9.2v-36.1h12.7V102.4z"/>
	<path class="st0" d="M175.8,149.3h-0.2c-3,6.7-10.9,10.3-17.7,10.3c-15.9,0-18.4-10.7-18.4-15.8c0-18.7,19.9-19.6,34.4-19.6h1.3
		v-2.8c0-9.5-3.4-14.4-12.7-14.4c-5.8,0-11.3,1.3-16.4,4.6v-6.7c4.3-2.1,11.5-3.8,16.4-3.8c13.8,0,19.6,6.3,19.6,20.8v24.6
		c0,4.5,0,7.8,0.6,11.7h-6.8V149.3z M175.1,130.1h-2c-11.9,0-26.2,1.2-26.2,13.5c0,7.3,5.3,10.1,11.6,10.1
		c16.2,0,16.5-14.1,16.5-20.2V130.1z"/>
	<path class="st0" d="M241.5,158.2h-6.9v-8.9h-0.2c-3.7,7.1-9.4,10.2-17.4,10.2c-15.3,0-23-12.7-23-29.3c0-16.9,6.6-29.2,23-29.2
		c10.9,0,16.4,8,17.4,10.7h0.2V76.1h6.9V158.2z M218.1,153.6c12.3,0,16.5-13.1,16.5-23.3c0-10.2-4.3-23.3-16.5-23.3
		c-13.1,0-16.5,12.5-16.5,23.3C201.6,141.2,205,153.6,218.1,153.6"/>
	<path class="st0" d="M281.2,108.3h-12.7v36.1c0,5.1,1.9,9.2,7.4,9.2c2.6,0,4.4-0.5,6.4-1.3l0.4,5.7c-1.6,0.7-5.1,1.5-8.4,1.5
		c-12.3,0-12.7-8.4-12.7-18.6v-32.6h-11v-5.9h11V88.9l6.9-2.4v15.9h12.7V108.3z"/>
	<path class="st0" d="M377.4,131.5c0,22.6-16.6,28.1-27.7,28.1c-11.2,0-27.7-5.5-27.7-28.1V81.8h7.6v49.7c0,12.5,6.9,21.5,20.2,21.5
		c13.2,0,20.2-9,20.2-21.5V81.8h7.6V131.5z"/>
	<rect x="393.7" y="76.1" class="st0" width="6.9" height="82.1"/>
	<path class="st0" d="M484.4,158.2v-37.1c0-7.9-2.9-14.1-11.8-14.1c-7.6,0-15,6.5-15,20.4v30.9h-6.9v-37.1c0-7.9-2.9-14.1-11.8-14.1
		c-7.6,0-15,6.5-15,20.4v30.9H417v-42.7c0-4.3,0-8.7-0.4-13.1h6.7v9.4l0.2,0.1c2.2-3.8,5.5-10.9,17.4-10.9c4.9,0,13,2.1,14.8,11.8
		h0.2c2.5-6.6,9.1-11.8,17.8-11.8c11.3,0,17.6,7.9,17.6,18.7v38.4H484.4z"/>
	<polygon class="st0" points="253.8,571.8 300.1,571.8 300.2,272.4 253.8,272.4 	"/>
	<path class="st0" d="M552.9,388.6c-21.9,0-45.2,10.1-56,31.6c-10.1-22.3-27.9-31.6-52.9-31.6c-17.4,0-38.7,7.2-53.2,29.2H390v-25.1
		h-43.5v178.6h46.7v-86.4c0-23.3,3.8-60.2,34.7-60.2c26.8,0,26.8,23.6,26.8,40.3v106.2h46.6v-86.4c0-23.3,3.8-60.2,34.8-60.2
		c26.8,0,26.8,23.6,26.8,40.3v106.2h44.2l0-128C605.7,411.3,591.2,388.6,552.9,388.6"/>
	<path class="st0" d="M211,572h-44.3v-24.3H166c-14.4,17.4-34.5,28.5-59,28.5c-42.6,0-61.1-29.9-61.1-70.5V392.3h46.8v96
		c0,21.9,0.3,51.6,30.3,51.6c33.8,0,41.1-36.6,41.1-59.6v-88H211V572z"/>
</g>
</svg>
