<?xml version="1.0" encoding="utf-8"?>
<!-- Generator: Adobe Illustrator 21.1.0, SVG Export Plug-In . SVG Version: 6.00 Build 0)  -->
<svg version="1.1" id="Ebene_1" xmlns="http://www.w3.org/2000/svg" xmlns:xlink="http://www.w3.org/1999/xlink" x="0px" y="0px"
	 viewBox="0 0 37.6 27.6" style="enable-background:new 0 0 37.6 27.6;" xml:space="preserve">
<path d="M32,22.5H9.6L9.1,22V8.6l0.5-0.5H32l0.5,0.5V22L32,22.5z M10.1,21.5h21.4V9.1H10.1V21.5z"/>
<polygon points="7.2,12.7 0.5,12.7 0,12.2 0,0.5 0.5,0 14,0 14.5,0.5 14.5,6.4 13.5,6.4 13.5,1 1,1 1,11.7 7.2,11.7 "/>
<path d="M19.7,15v-1.8h0.4c0.8,0,1,0,1.2,0.2c0.3,0.2,0.4,0.4,0.4,0.7c0,0.4-0.2,0.7-0.5,0.8c-0.2,0.1-0.4,0.1-1,0.1H19.7z
	 M18.5,12.1v6.3h1.2v-2.4h0.9l1.3,2.4h1.4l-1.5-2.6c0.7-0.3,1.1-0.9,1.1-1.8c0-0.7-0.3-1.3-0.9-1.6c-0.4-0.2-0.9-0.3-2-0.3H18.5z
	 M15.6,16.1h-1.6l0.8-2.6L15.6,16.1z M14.1,12.1L12,18.5h1.2l0.4-1.3h2.2l0.4,1.3h1.3l-2.2-6.3H14.1z"/>
<polygon points="37.6,9.8 36.6,9.8 36.6,1 27.7,1 27.7,0 37.1,0 37.6,0.5 "/>
<polygon points="9.8,27.6 0.5,27.6 0,27.1 0,17.8 1,17.8 1,26.6 9.8,26.6 "/>
</svg>
