<svg id="Capa_1" enable-background="new 0 0 512.017 512.017" height="512" viewBox="0 0 512.017 512.017" width="512" xmlns="http://www.w3.org/2000/svg"><g><path d="m43.197 446.18c25.734 25.733 65.423 28.7 94.392 9.539l51.9 51.9c5.856 5.857 15.354 5.859 21.213 0l42.427-42.427c5.855-5.855 5.857-15.356 0-21.213l-50.714-50.714c101.197-95.808 205.401-102.465 237.865-113.845 5.243-1.311 9.375-5.34 10.817-10.548 1.443-5.208-.028-10.789-3.849-14.611l-233.345-233.345c-3.82-3.821-9.4-5.291-14.61-3.849-5.208 1.443-9.237 5.575-10.548 10.818-11.022 30.811-18.35 142.605-121.742 245.997-7.022 7.022-40.705 40.705-45.019 45.019-29.31 29.309-29.315 76.752 0 106.066zm156.899 29.62-40.226-40.226 21.213-21.213 40.227 40.227zm-103.979-188.832c43.635-45.919 76.711-100.366 97.027-159.531l147.583 147.583c-59.166 20.317-113.613 53.392-159.531 97.027zm115.306-226.106 195.879 195.879c-20.628 5.169-27.286 6.8-33.921 8.506l-170.464-170.463c1.615-6.28 4.759-18.97 8.506-33.922zm-168.226 279.252 31.82-31.82 84.853 84.853-31.82 31.82c-17.545 17.545-46.094 17.546-63.64 0l-21.213-21.213c-17.585-17.585-17.589-46.052 0-63.64z"/><path d="m316.017 91.007c8.284 0 15-6.716 15-15v-61c0-8.284-6.716-15-15-15s-15 6.716-15 15v61c0 8.285 6.716 15 15 15z"/><path d="m369.309 119.424c7.424 3.712 16.427.686 20.125-6.708l20.693-41.386 15.284 15.284c3.397 3.397 8.216 4.961 12.961 4.208 4.745-.754 8.841-3.735 11.018-8.018l31-61c3.753-7.385.809-16.415-6.576-20.168-7.386-3.754-16.416-.809-20.168 6.577l-21.636 42.574-15.385-15.385c-3.409-3.409-8.25-4.972-13.009-4.2s-8.857 3.786-11.014 8.098l-30 60c-3.706 7.409-.703 16.419 6.707 20.124z"/><path d="m447.568 126.438c-2.693-3.251-6.632-5.217-10.85-5.414-4.229-.199-8.323 1.392-11.308 4.377l-30 30c-5.858 5.858-5.858 15.355 0 21.213 5.857 5.858 15.355 5.858 21.213 0l18.352-18.351 19.491 23.527c5.987 7.227 17.069 7.242 23.076.031l31-37.213c5.302-6.365 4.441-15.823-1.924-21.126-6.366-5.303-15.824-4.44-21.125 1.924l-19.443 23.34z"/></g></svg>