<?xml version="1.0"?>
<svg xmlns="http://www.w3.org/2000/svg" xmlns:xlink="http://www.w3.org/1999/xlink" xmlns:svgjs="http://svgjs.com/svgjs" version="1.1" width="256" height="256" x="0" y="0" viewBox="0 0 512 512" style="enable-background:new 0 0 512 512" xml:space="preserve" class=""><g><g xmlns="http://www.w3.org/2000/svg"><path d="m456.66 0h-71.66c-8.284 0-15 6.716-15 15s6.716 15 15 15h71.66c13.972 0 25.34 11.368 25.34 25.341v71.659c0 8.284 6.716 15 15 15s15-6.716 15-15v-71.659c0-30.515-24.826-55.341-55.34-55.341z" fill="#ffffff" data-original="#000000" style="" class=""/><path d="m15 142c8.284 0 15-6.716 15-15v-71.659c0-13.973 11.368-25.341 25.34-25.341h71.66c8.284 0 15-6.716 15-15s-6.716-15-15-15h-71.66c-30.514 0-55.34 24.826-55.34 55.341v71.659c0 8.284 6.716 15 15 15z" fill="#ffffff" data-original="#000000" style="" class=""/><path d="m127 482h-71.66c-13.972 0-25.34-11.368-25.34-25.341v-71.659c0-8.284-6.716-15-15-15s-15 6.716-15 15v71.659c0 30.515 24.826 55.341 55.34 55.341h71.66c8.284 0 15-6.716 15-15s-6.716-15-15-15z" fill="#ffffff" data-original="#000000" style="" class=""/><path d="m497 370c-8.284 0-15 6.716-15 15v71.659c0 13.973-11.368 25.341-25.34 25.341h-71.66c-8.284 0-15 6.716-15 15s6.716 15 15 15h71.66c30.515 0 55.34-24.826 55.34-55.341v-71.659c0-8.284-6.716-15-15-15z" fill="#ffffff" data-original="#000000" style="" class=""/><path d="m341.643 110h47.575c6.497 0 11.782 5.285 11.782 11.782v47.574c0 8.284 6.716 15 15 15s15-6.716 15-15v-47.574c0-23.039-18.744-41.782-41.782-41.782h-47.575c-8.284 0-15 6.716-15 15s6.716 15 15 15z" fill="#ffffff" data-original="#000000" style="" class=""/><path d="m81 121.782v47.574c0 8.284 6.716 15 15 15s15-6.716 15-15v-47.574c0-6.497 5.286-11.782 11.782-11.782h47.575c8.284 0 15-6.716 15-15s-6.716-15-15-15h-47.575c-23.038 0-41.782 18.743-41.782 41.782z" fill="#ffffff" data-original="#000000" style="" class=""/><path d="m170.357 400h-47.575c-6.497 0-11.782-5.285-11.782-11.782v-47.574c0-8.284-6.716-15-15-15s-15 6.716-15 15v47.574c0 23.039 18.744 41.782 41.782 41.782h47.575c8.284 0 15-6.716 15-15s-6.716-15-15-15z" fill="#ffffff" data-original="#000000" style="" class=""/><path d="m431 388.218v-47.574c0-8.284-6.716-15-15-15s-15 6.716-15 15v47.574c0 6.497-5.286 11.782-11.782 11.782h-47.575c-8.284 0-15 6.716-15 15s6.716 15 15 15h47.575c23.038 0 41.782-18.743 41.782-41.782z" fill="#ffffff" data-original="#000000" style="" class=""/><path d="m1 256c0 8.284 6.716 15 15 15h480c8.284 0 15-6.716 15-15s-6.716-15-15-15h-480c-8.284 0-15 6.716-15 15z" fill="#ffffff" data-original="#000000" style="" class=""/></g></g></svg>
